<svg width="48" height="48" viewBox="0 0 48 48" fill="none" xmlns="http://www.w3.org/2000/svg">
<g id="bag-2 1">
<path id="Vector" opacity="0.5" d="M8.1656 21.7886C9.04342 17.1068 9.48234 14.7659 11.1487 13.3829C12.815 12 15.1967 12 19.9601 12H28.0418C32.8052 12 35.1868 12 36.8532 13.3829C38.5196 14.7659 38.9584 17.1068 39.8362 21.7886L41.3362 29.7886C42.5706 36.372 43.1878 39.6636 41.3884 41.8318C39.589 44 36.24 44 29.5418 44H18.4601C11.7619 44 8.41288 44 6.61344 41.8318C4.81402 39.6636 5.4312 36.372 6.6656 29.7886L8.1656 21.7886Z" fill="url(#paint0_linear_0_4389)"/>
<path id="Vector_2" d="M19.5 10C19.5 7.51472 21.5148 5.5 24 5.5C26.4852 5.5 28.5 7.51472 28.5 10V12C28.5 12 28.5 12 28.5 12C29.632 12.0004 30.6238 12.0035 31.4998 12.0298C31.5 12.0199 31.5 12.0099 31.5 12V10C31.5 5.85786 28.1422 2.5 24 2.5C19.8579 2.5 16.5 5.85786 16.5 10V12C16.5 12.01 16.5001 12.0199 16.5003 12.0298C17.3763 12.0035 18.3679 12.0004 19.5 12V10Z" fill="url(#paint1_linear_0_4389)"/>
<path id="Vector_3" d="M16.5206 21.7536C16.6568 20.9364 17.4297 20.3844 18.2468 20.5206C19.064 20.6568 19.616 21.4296 19.4798 22.2468L17.4798 34.2468C17.3436 35.064 16.5708 35.616 15.7536 35.4798C14.9365 35.3436 14.3845 34.5708 14.5206 33.7536L16.5206 21.7536Z" fill="url(#paint2_linear_0_4389)"/>
<path id="Vector_4" d="M29.7541 20.5206C30.5711 20.3844 31.3439 20.9364 31.4801 21.7536L33.4801 33.7536C33.6163 34.5708 33.0643 35.3436 32.2471 35.4798C31.4301 35.616 30.6573 35.064 30.5211 34.2468L28.5211 22.2468C28.3849 21.4296 28.9369 20.6568 29.7541 20.5206Z" fill="url(#paint3_linear_0_4389)"/>
</g>
<defs>
<linearGradient id="paint0_linear_0_4389" x1="24.0009" y1="12" x2="24.0009" y2="44" gradientUnits="userSpaceOnUse">
<stop stop-color="#8C52FF"/>
<stop offset="1" stop-color="#A276FA"/>
</linearGradient>
<linearGradient id="paint1_linear_0_4389" x1="24" y1="2.5" x2="24" y2="12.0298" gradientUnits="userSpaceOnUse">
<stop stop-color="#8C52FF"/>
<stop offset="1" stop-color="#A276FA"/>
</linearGradient>
<linearGradient id="paint2_linear_0_4389" x1="17.0002" y1="20.5" x2="17.0002" y2="35.5005" gradientUnits="userSpaceOnUse">
<stop stop-color="#8C52FF"/>
<stop offset="1" stop-color="#A276FA"/>
</linearGradient>
<linearGradient id="paint3_linear_0_4389" x1="31.0006" y1="20.5" x2="31.0006" y2="35.5005" gradientUnits="userSpaceOnUse">
<stop stop-color="#8C52FF"/>
<stop offset="1" stop-color="#A276FA"/>
</linearGradient>
</defs>
</svg>
