<svg width="48" height="48" viewBox="0 0 48 48" fill="none" xmlns="http://www.w3.org/2000/svg">
<g id="chart-2 1">
<path id="Vector" d="M6.58578 18.5858C6 19.1716 6 20.1144 6 22V34C6 35.8856 6 36.8284 6.58578 37.4142C7.17158 38 8.11438 38 10 38C11.8856 38 12.8284 38 13.4142 37.4142C14 36.8284 14 35.8856 14 34V22C14 20.1144 14 19.1716 13.4142 18.5858C12.8284 18 11.8856 18 10 18C8.11438 18 7.17158 18 6.58578 18.5858Z" fill="url(#paint0_linear_0_4355)"/>
<path id="Vector_2" opacity="0.4" d="M34.5858 4.58578C34 5.17158 34 6.11438 34 8V34C34 35.8856 34 36.8284 34.5858 37.4142C35.1716 38 36.1144 38 38 38C39.8856 38 40.8284 38 41.4142 37.4142C42 36.8284 42 35.8856 42 34V8C42 6.11438 42 5.17158 41.4142 4.58578C40.8284 4 39.8856 4 38 4C36.1144 4 35.1716 4 34.5858 4.58578Z" fill="url(#paint1_linear_0_4355)"/>
<path id="Vector_3" opacity="0.7" d="M20 14C20 12.1144 20 11.1716 20.5858 10.5858C21.1716 10 22.1144 10 24 10C25.8856 10 26.8284 10 27.4142 10.5858C28 11.1716 28 12.1144 28 14V34C28 35.8856 28 36.8284 27.4142 37.4142C26.8284 38 25.8856 38 24 38C22.1144 38 21.1716 38 20.5858 37.4142C20 36.8284 20 35.8856 20 34V14Z" fill="url(#paint2_linear_0_4355)"/>
<path id="Vector_4" d="M6 42.5C5.17158 42.5 4.5 43.1716 4.5 44C4.5 44.8284 5.17158 45.5 6 45.5H42C42.8284 45.5 43.5 44.8284 43.5 44C43.5 43.1716 42.8284 42.5 42 42.5H6Z" fill="url(#paint3_linear_0_4355)"/>
</g>
<defs>
<linearGradient id="paint0_linear_0_4355" x1="10" y1="18" x2="10" y2="38" gradientUnits="userSpaceOnUse">
<stop stop-color="#8C52FF"/>
<stop offset="1" stop-color="#A276FA"/>
</linearGradient>
<linearGradient id="paint1_linear_0_4355" x1="38" y1="4" x2="38" y2="38" gradientUnits="userSpaceOnUse">
<stop stop-color="#8C52FF"/>
<stop offset="1" stop-color="#A276FA"/>
</linearGradient>
<linearGradient id="paint2_linear_0_4355" x1="24" y1="10" x2="24" y2="38" gradientUnits="userSpaceOnUse">
<stop stop-color="#8C52FF"/>
<stop offset="1" stop-color="#A276FA"/>
</linearGradient>
<linearGradient id="paint3_linear_0_4355" x1="24" y1="42.5" x2="24" y2="45.5" gradientUnits="userSpaceOnUse">
<stop stop-color="#8C52FF"/>
<stop offset="1" stop-color="#A276FA"/>
</linearGradient>
</defs>
</svg>
