<svg width="48" height="48" viewBox="0 0 48 48" fill="none" xmlns="http://www.w3.org/2000/svg">
<g id="chess-king 1" clip-path="url(#clip0_0_4334)">
<path id="Vector" fill-rule="evenodd" clip-rule="evenodd" d="M24 0C25.1046 0 26 0.89543 26 2V4H28C29.1046 4 30 4.89544 30 6C30 7.10456 29.1046 8 28 8H26V12.2685C28.3746 12.9261 30.2328 14.7352 31.219 17.0711C33.5774 15.4134 36.0292 14.6618 38.3786 14.7753C41.6346 14.9326 44.3602 16.7428 45.9648 19.4076C49.0534 24.5364 47.9072 32.2922 40.513 38.554L42.3416 42.2112C43.6714 44.8708 41.7376 48 38.764 48H9.2361C6.26258 48 4.3286 44.8708 5.65838 42.2112L7.48694 38.554C0.0928116 32.2922 -1.05322 24.5364 2.03534 19.4076C3.64004 16.7428 6.36556 14.9326 9.6216 14.7753C11.971 14.6619 14.4226 15.4135 16.7812 17.0712C17.7673 14.7353 19.6254 12.9261 22 12.2685V8H20C18.8954 8 18 7.10456 18 6C18 4.89544 18.8954 4 20 4H22V2C22 0.89543 22.8954 0 24 0ZM16.0257 21.6196C13.6818 19.3831 11.4991 18.6893 9.81454 18.7707C8.0068 18.858 6.4404 19.8463 5.46198 21.471C3.60416 24.5562 3.75574 30.5296 10.6803 36H20.8874C20.3744 34.844 19.7611 33.423 19.1468 31.9086C18.3865 30.0346 17.6141 27.9912 17.0285 26.1166C16.5411 24.5558 16.1301 22.952 16.0257 21.6196ZM27.1128 36H37.3198C44.2444 30.5296 44.396 24.5562 42.5382 21.471C41.5598 19.8464 39.9934 18.858 38.1856 18.7707C36.501 18.6893 34.3184 19.383 31.9744 21.6194C31.87 22.9518 31.4592 24.5558 30.9716 26.1166C30.386 27.9912 29.6136 30.0346 28.8534 31.9086C28.239 33.423 27.6258 34.844 27.1128 36ZM36.764 40H24H11.2361L9.2361 44H38.764L36.764 40ZM24 33.1374C24.3644 32.2956 24.7558 31.3688 25.1468 30.405C25.8866 28.5814 26.614 26.651 27.1536 24.924C27.7128 23.1336 28 21.7734 28 21C28 20.9398 27.9992 20.8802 27.9978 20.821C27.918 17.7584 25.9206 16 24 16C22.0796 16 20.0822 17.7585 20.0024 20.821C20.0008 20.8802 20 20.94 20 21C20 21.7734 20.2874 23.1336 20.8466 24.924C21.386 26.651 22.1136 28.5814 22.8534 30.405C23.2444 31.3688 23.6358 32.2956 24 33.1374Z" fill="url(#paint0_linear_0_4334)"/>
</g>
<defs>
<linearGradient id="paint0_linear_0_4334" x1="24.0001" y1="0" x2="24.0001" y2="48" gradientUnits="userSpaceOnUse">
<stop stop-color="#8C52FF"/>
<stop offset="1" stop-color="#A276FA"/>
</linearGradient>
<clipPath id="clip0_0_4334">
<rect width="48" height="48" fill="white"/>
</clipPath>
</defs>
</svg>
