<svg width="48" height="48" viewBox="0 0 48 48" fill="none" xmlns="http://www.w3.org/2000/svg">
<g id="globe 1">
<path id="Vector" d="M44.0007 24.1769C44.0036 28.1089 42.8474 31.9545 40.6767 35.233C38.506 38.5115 35.4171 41.0775 31.7962 42.6102C28.1752 44.1429 24.1828 44.5743 20.318 43.8505C16.4532 43.1266 12.8875 41.2797 10.0666 38.5405C7.24567 35.8014 5.29471 32.2915 4.45758 28.4496C3.62045 24.6078 3.93428 20.6044 5.35986 16.94C6.78543 13.2755 9.25949 10.1125 12.4728 7.8464C15.6861 5.58027 19.496 4.31154 23.4264 4.1988C23.8046 4.14988 24.1875 4.14988 24.5658 4.1988C29.7681 4.34349 34.7089 6.51129 38.3381 10.2414C41.9673 13.9716 43.9988 18.9726 44.0007 24.1769ZM17.3051 40.0119C17.7329 40.1921 18.1666 40.3546 18.6062 40.4994C15.9859 35.9519 14.6157 30.792 14.6348 25.5436H6.85376C7.10762 28.68 8.21602 31.6868 10.0586 34.2376C11.9011 36.7883 14.4074 38.7853 17.3051 40.0119ZM8.14976 17.4872C7.44105 19.1602 7.0052 20.936 6.85881 22.747H14.6348C14.619 17.5303 15.969 12.4002 18.5506 7.86701C18.1312 8.0068 17.7161 8.16343 17.3051 8.3369C13.1822 10.0843 9.89942 13.3652 8.14976 17.4872ZM30.5582 22.747C30.496 20.7872 30.2755 18.8355 29.8988 16.9112C29.5304 14.9425 28.9256 13.0255 28.0975 11.2017C26.9683 8.79669 25.5485 7.22785 24.3157 6.99038C24.1026 6.98719 23.8895 6.98719 23.6765 6.99038C22.4437 7.22785 21.0239 8.79669 19.8946 11.2043C19.0674 13.0281 18.4634 14.9451 18.0959 16.9137C17.7193 18.8372 17.4988 20.788 17.4365 22.747H30.5582ZM28.0975 37.0864C28.9257 35.2627 29.5305 33.3457 29.8988 31.3769C30.2744 29.4533 30.4941 27.5026 30.5557 25.5436H17.439C17.5013 27.5035 17.7218 29.4551 18.0984 31.3794C18.4661 33.3472 19.07 35.2634 19.8971 37.0864C21.1274 39.7036 22.6988 41.3306 23.9999 41.3306C25.3009 41.3306 26.8723 39.7036 28.1001 37.0864H28.0975ZM39.85 30.8666C40.5666 29.1739 41.0042 27.3763 41.146 25.5436H33.3599C33.3801 30.7937 32.0099 35.9556 29.3885 40.5045C29.8281 40.3596 30.2634 40.1963 30.6946 40.0144C34.8171 38.2676 38.0998 34.9876 39.85 30.8666ZM30.6946 8.3369C30.2832 8.16325 29.8652 8.00566 29.4416 7.86448C32.0233 12.3976 33.3734 17.5277 33.3573 22.7445H41.1409C40.8771 19.6193 39.7647 16.6255 37.9236 14.0863C36.0826 11.5472 33.583 9.55916 30.6946 8.3369Z" fill="url(#paint0_linear_0_4364)"/>
</g>
<defs>
<linearGradient id="paint0_linear_0_4364" x1="23.9999" y1="4.16211" x2="23.9999" y2="44.1923" gradientUnits="userSpaceOnUse">
<stop stop-color="#8C52FF"/>
<stop offset="1" stop-color="#A276FA"/>
</linearGradient>
</defs>
</svg>
