<svg width="48" height="48" viewBox="0 0 48 48" fill="none" xmlns="http://www.w3.org/2000/svg">
<g id="light-bulb-idea 1" clip-path="url(#clip0_0_4398)">
<g id="Group">
<g id="Group_2">
<path id="Vector" d="M24.0002 0C13.481 0 5.00439 8.47657 5.00439 18.9958C5.00439 26.4511 9.29376 32.9872 15.932 36.1532V41.9745C15.932 45.2425 18.5873 48 21.9575 48H26.0427C29.4129 48 32.1703 45.2425 32.2725 41.9745V36.0511C38.8087 32.8851 42.9959 26.3489 42.9959 18.9958C42.9959 8.47666 34.5193 0 24.0002 0ZM28.0852 41.8723C28.0852 42.9957 27.166 43.9149 26.0427 43.9149H21.8555C20.7321 43.9149 19.8129 42.9957 19.8129 41.8723V37.3787C22.5704 37.9915 25.43 37.9915 28.0853 37.3787V41.8723H28.0852ZM29.4129 32.9872C29.3107 32.9872 29.3107 33.0894 29.2087 33.0894C25.7363 34.1107 22.0597 34.0085 18.5874 32.9872C12.7661 30.7404 8.98738 25.2255 8.98738 18.9958C8.98738 10.7234 15.7278 3.98298 24.0002 3.98298C32.2725 3.98298 39.0129 10.7234 39.0129 18.9958C39.0129 25.2256 35.2342 30.7405 29.4129 32.9872Z" fill="url(#paint0_linear_0_4398)"/>
</g>
</g>
<g id="Group_3">
<g id="Group_4">
<path id="Vector_2" d="M29.9235 14.0932C29.1065 13.2762 27.881 13.2762 27.0639 14.0932L24.0001 17.157L20.9363 14.0932C20.1193 13.2762 18.8937 13.2762 18.0766 14.0932C17.2596 14.9102 17.2597 16.1357 18.0766 16.9528L22.5703 21.4464C22.9789 21.855 23.4895 22.0592 24.0001 22.0592C24.5107 22.0592 25.0214 21.855 25.4298 21.4464L29.9234 16.9528C30.7405 16.1357 30.7405 14.9102 29.9235 14.0932Z" fill="url(#paint1_linear_0_4398)"/>
</g>
</g>
</g>
<defs>
<linearGradient id="paint0_linear_0_4398" x1="24.0002" y1="0" x2="24.0002" y2="48" gradientUnits="userSpaceOnUse">
<stop stop-color="#8C52FF"/>
<stop offset="1" stop-color="#A276FA"/>
</linearGradient>
<linearGradient id="paint1_linear_0_4398" x1="24.0001" y1="13.4805" x2="24.0001" y2="22.0592" gradientUnits="userSpaceOnUse">
<stop stop-color="#8C52FF"/>
<stop offset="1" stop-color="#A276FA"/>
</linearGradient>
<clipPath id="clip0_0_4398">
<rect width="48" height="48" fill="white"/>
</clipPath>
</defs>
</svg>
