<svg width="48" height="48" viewBox="0 0 48 48" fill="none" xmlns="http://www.w3.org/2000/svg">
<g id="write 1">
<path id="Vector" d="M2 44C2 42.8954 2.89544 42 4 42H44C45.1046 42 46 42.8954 46 44C46 45.1046 45.1046 46 44 46H4C2.89544 46 2 45.1046 2 44Z" fill="url(#paint0_linear_0_4340)"/>
<path id="Vector_2" fill-rule="evenodd" clip-rule="evenodd" d="M36.6112 3.75736C34.2682 1.41421 30.4692 1.41421 28.126 3.75736L6.77808 25.1052C5.9712 25.9122 5.41114 26.9324 5.1636 28.0464L4.09806 32.8412C3.46294 35.6992 6.01254 38.2488 8.87052 37.6138L13.6654 36.5482C14.7794 36.3006 15.7996 35.7406 16.6065 34.9338L37.9544 13.5858C40.2976 11.2426 40.2976 7.44366 37.9544 5.1005L36.6112 3.75736ZM30.9544 6.58578C31.7354 5.80474 33.0018 5.80474 33.7828 6.58578L35.126 7.92894C35.907 8.70998 35.907 9.97632 35.126 10.7574L31.2828 14.6005L27.1112 10.429L30.9544 6.58578ZM24.2828 13.2574L9.6065 27.9338C9.33754 28.2026 9.15086 28.5428 9.06834 28.914L8.0028 33.709L12.7977 32.6434C13.169 32.561 13.5091 32.3742 13.7781 32.1052L28.4544 17.429L24.2828 13.2574Z" fill="url(#paint1_linear_0_4340)"/>
</g>
<defs>
<linearGradient id="paint0_linear_0_4340" x1="24" y1="42" x2="24" y2="46" gradientUnits="userSpaceOnUse">
<stop stop-color="#8C52FF"/>
<stop offset="1" stop-color="#A276FA"/>
</linearGradient>
<linearGradient id="paint1_linear_0_4340" x1="21.8559" y1="2" x2="21.8559" y2="37.7118" gradientUnits="userSpaceOnUse">
<stop stop-color="#8C52FF"/>
<stop offset="1" stop-color="#A276FA"/>
</linearGradient>
</defs>
</svg>
